<?xml version="1.0" encoding="UTF-8"?>
<!DOCTYPE svg PUBLIC "-//W3C//DTD SVG 1.1//EN" "http://www.w3.org/Graphics/SVG/1.1/DTD/svg11.dtd">
<svg xmlns="http://www.w3.org/2000/svg" xmlns:xlink="http://www.w3.org/1999/xlink" version="1.1" width="81px" height="81px" viewBox="-0.5 -0.5 81 81"><defs/><g><path d="M 27.02 47.73 L 32.27 52.98 L 13.61 71.64 L 18.64 76.67 L 0.35 79.65 L 3.33 61.36 L 8.36 66.39 Z" fill="#000000" stroke="#000000" stroke-linejoin="round" stroke-miterlimit="10" pointer-events="all"/><path d="M 32.27 27.02 L 27.02 32.27 L 8.36 13.61 L 3.33 18.64 L 0.35 0.35 L 18.64 3.33 L 13.61 8.36 Z" fill="#000000" stroke="#000000" stroke-linejoin="round" stroke-miterlimit="10" pointer-events="all"/><path d="M 52.98 32.27 L 47.73 27.02 L 66.39 8.36 L 61.36 3.33 L 79.65 0.35 L 76.67 18.64 L 71.64 13.61 Z" fill="#000000" stroke="#000000" stroke-linejoin="round" stroke-miterlimit="10" pointer-events="all"/><path d="M 47.73 52.98 L 52.98 47.73 L 71.64 66.39 L 76.67 61.36 L 79.65 79.65 L 61.36 76.67 L 66.39 71.64 Z" fill="#000000" stroke="#000000" stroke-linejoin="round" stroke-miterlimit="10" pointer-events="all"/><ellipse cx="40" cy="40" rx="7.5" ry="7.5" fill="#030303" stroke="#030303" pointer-events="all"/></g></svg>